<?xml version="1.0" encoding="UTF-8"?>
<svg xmlns="http://www.w3.org/2000/svg" width="1200" height="630" viewBox="0 0 1200 630">
  <defs>
    <linearGradient id="bg" x1="0" y1="0" x2="1" y2="1">
      <stop offset="0%" stop-color="#06090d"/>
      <stop offset="100%" stop-color="#0a1018"/>
    </linearGradient>
  </defs>

  <!-- 배경 -->
  <rect width="1200" height="630" fill="url(#bg)"/>

  <!-- 도트 패턴 -->
  <g>
    <circle cx="143" cy="517" r="2" fill="#7cff7a" opacity="0.14"/>
    <circle cx="226" cy="464" r="1.5" fill="#7cff7a" opacity="0.12"/>
    <circle cx="309" cy="411" r="1" fill="#7cff7a" opacity="0.1"/>
    <circle cx="392" cy="358" r="2" fill="#7cff7a" opacity="0.08"/>
    <circle cx="475" cy="305" r="1.5" fill="#7cff7a" opacity="0.06"/>
    <circle cx="558" cy="252" r="1" fill="#7cff7a" opacity="0.14"/>
    <circle cx="641" cy="199" r="2" fill="#7cff7a" opacity="0.12"/>
    <circle cx="724" cy="146" r="1.5" fill="#7cff7a" opacity="0.1"/>
    <circle cx="807" cy="93" r="1" fill="#7cff7a" opacity="0.08"/>
    <circle cx="890" cy="550" r="2" fill="#7cff7a" opacity="0.06"/>
    <circle cx="973" cy="497" r="1.5" fill="#7cff7a" opacity="0.14"/>
    <circle cx="1056" cy="444" r="1" fill="#7cff7a" opacity="0.12"/>
    <circle cx="1139" cy="391" r="2" fill="#7cff7a" opacity="0.1"/>
    <circle cx="142" cy="338" r="1.5" fill="#7cff7a" opacity="0.08"/>
    <circle cx="225" cy="285" r="1" fill="#7cff7a" opacity="0.06"/>
    <circle cx="308" cy="232" r="2" fill="#7cff7a" opacity="0.14"/>
    <circle cx="391" cy="179" r="1.5" fill="#7cff7a" opacity="0.12"/>
    <circle cx="474" cy="126" r="1" fill="#7cff7a" opacity="0.1"/>
    <circle cx="557" cy="73" r="2" fill="#7cff7a" opacity="0.08"/>
    <circle cx="640" cy="530" r="1.5" fill="#7cff7a" opacity="0.06"/>
    <circle cx="723" cy="477" r="1" fill="#7cff7a" opacity="0.14"/>
    <circle cx="806" cy="424" r="2" fill="#7cff7a" opacity="0.12"/>
    <circle cx="889" cy="371" r="1.5" fill="#7cff7a" opacity="0.1"/>
    <circle cx="972" cy="318" r="1" fill="#7cff7a" opacity="0.08"/>
  </g>

  <!-- 테두리 -->
  <rect x="40" y="40" width="1120" height="550" rx="24" fill="none" stroke="#7cff7a" stroke-opacity="0.08" stroke-width="1"/>

  <!-- 상단 악센트 라인 -->
  <line x1="90" y1="40" x2="400" y2="40" stroke="#7cff7a" stroke-opacity="0.4" stroke-width="2"/>

  <!-- 뱃지 -->
  <rect x="90" y="90" rx="14" width="182" height="30" fill="#7cff7a" fill-opacity="0.08" stroke="#7cff7a" stroke-opacity="0.2" stroke-width="1"/>
  <text x="104" y="110" fill="#7cff7a" font-size="13" font-weight="600" font-family="'SF Mono','SFMono-Regular',Consolas,'Liberation Mono',monospace" letter-spacing="1.8">DESIGN PATTERN</text>

  <!-- 서브카테고리 -->
  <text x="92" y="166" fill="#7cff7a" fill-opacity="0.35" font-size="15" font-weight="500" font-family="'SF Mono','SFMono-Regular',Consolas,monospace" letter-spacing="1">GoF · Creational</text>

  <!-- 구분선 -->
  <line x1="90" y1="186" x2="500" y2="186" stroke="#7cff7a" stroke-opacity="0.12" stroke-width="1"/>

  <!-- 타이틀 -->
  <text x="90" y="290" fill="#f0f4f8" font-size="72" font-weight="800" font-family="'Pretendard','Segoe UI',system-ui,sans-serif" letter-spacing="-1.5">Singleton</text>

  <!-- 하단 경로 -->
  <text x="92" y="520" fill="#7cff7a" fill-opacity="0.25" font-size="14" font-family="'SF Mono','SFMono-Regular',Consolas,monospace" letter-spacing="1.5">somblog</text>

  <!-- 우측 장식 -->
  
    <circle cx="980" cy="260" r="120" fill="none" stroke="#7cff7a" stroke-opacity="0.06" stroke-width="1"/>
    <circle cx="980" cy="260" r="80" fill="none" stroke="#7cff7a" stroke-opacity="0.09" stroke-width="1"/>
    <circle cx="980" cy="260" r="40" fill="none" stroke="#7cff7a" stroke-opacity="0.14" stroke-width="1"/>
    <circle cx="980" cy="260" r="6" fill="#7cff7a" opacity="0.2"/>
    <line x1="860" y1="260" x2="936" y2="260" stroke="#7cff7a" stroke-opacity="0.08" stroke-width="1"/>
    <line x1="980" y1="140" x2="980" y2="216" stroke="#7cff7a" stroke-opacity="0.08" stroke-width="1"/>
</svg>