<?xml version="1.0" encoding="UTF-8"?>
<svg xmlns="http://www.w3.org/2000/svg" width="1200" height="630" viewBox="0 0 1200 630">
  <defs>
    <linearGradient id="bg" x1="0" y1="0" x2="1" y2="1">
      <stop offset="0%" stop-color="#06090d"/>
      <stop offset="100%" stop-color="#0a1018"/>
    </linearGradient>
  </defs>

  <!-- 배경 -->
  <rect width="1200" height="630" fill="url(#bg)"/>

  <!-- 도트 패턴 -->
  <g>
    <circle cx="449" cy="361" r="2" fill="#6ee7b7" opacity="0.1"/>
    <circle cx="838" cy="152" r="1.5" fill="#6ee7b7" opacity="0.14"/>
    <circle cx="147" cy="453" r="1" fill="#6ee7b7" opacity="0.08"/>
    <circle cx="536" cy="244" r="2" fill="#6ee7b7" opacity="0.12"/>
    <circle cx="925" cy="545" r="1.5" fill="#6ee7b7" opacity="0.06"/>
    <circle cx="234" cy="336" r="1" fill="#6ee7b7" opacity="0.1"/>
    <circle cx="623" cy="127" r="2" fill="#6ee7b7" opacity="0.14"/>
    <circle cx="1012" cy="428" r="1.5" fill="#6ee7b7" opacity="0.08"/>
    <circle cx="321" cy="219" r="1" fill="#6ee7b7" opacity="0.12"/>
    <circle cx="710" cy="520" r="2" fill="#6ee7b7" opacity="0.06"/>
    <circle cx="1099" cy="311" r="1.5" fill="#6ee7b7" opacity="0.1"/>
    <circle cx="408" cy="102" r="1" fill="#6ee7b7" opacity="0.14"/>
    <circle cx="797" cy="403" r="2" fill="#6ee7b7" opacity="0.08"/>
    <circle cx="106" cy="194" r="1.5" fill="#6ee7b7" opacity="0.12"/>
    <circle cx="495" cy="495" r="1" fill="#6ee7b7" opacity="0.06"/>
    <circle cx="884" cy="286" r="2" fill="#6ee7b7" opacity="0.1"/>
    <circle cx="193" cy="77" r="1.5" fill="#6ee7b7" opacity="0.14"/>
    <circle cx="582" cy="378" r="1" fill="#6ee7b7" opacity="0.08"/>
    <circle cx="971" cy="169" r="2" fill="#6ee7b7" opacity="0.12"/>
    <circle cx="280" cy="470" r="1.5" fill="#6ee7b7" opacity="0.06"/>
    <circle cx="669" cy="261" r="1" fill="#6ee7b7" opacity="0.1"/>
    <circle cx="1058" cy="562" r="2" fill="#6ee7b7" opacity="0.14"/>
    <circle cx="367" cy="353" r="1.5" fill="#6ee7b7" opacity="0.08"/>
    <circle cx="756" cy="144" r="1" fill="#6ee7b7" opacity="0.12"/>
  </g>

  <!-- 테두리 -->
  <rect x="40" y="40" width="1120" height="550" rx="24" fill="none" stroke="#6ee7b7" stroke-opacity="0.08" stroke-width="1"/>

  <!-- 상단 악센트 라인 -->
  <line x1="90" y1="40" x2="400" y2="40" stroke="#6ee7b7" stroke-opacity="0.4" stroke-width="2"/>

  <!-- 뱃지 -->
  <rect x="90" y="90" rx="14" width="182" height="30" fill="#6ee7b7" fill-opacity="0.08" stroke="#6ee7b7" stroke-opacity="0.2" stroke-width="1"/>
  <text x="104" y="110" fill="#6ee7b7" font-size="13" font-weight="600" font-family="'SF Mono','SFMono-Regular',Consolas,'Liberation Mono',monospace" letter-spacing="1.8">DESIGN PATTERN</text>

  <!-- 서브카테고리 -->
  <text x="92" y="166" fill="#6ee7b7" fill-opacity="0.35" font-size="15" font-weight="500" font-family="'SF Mono','SFMono-Regular',Consolas,monospace" letter-spacing="1">GoF · Behavioral</text>

  <!-- 구분선 -->
  <line x1="90" y1="186" x2="500" y2="186" stroke="#6ee7b7" stroke-opacity="0.12" stroke-width="1"/>

  <!-- 타이틀 -->
  <text x="90" y="290" fill="#f0f4f8" font-size="72" font-weight="800" font-family="'Pretendard','Segoe UI',system-ui,sans-serif" letter-spacing="-1.5">Command</text>

  <!-- 하단 경로 -->
  <text x="92" y="520" fill="#6ee7b7" fill-opacity="0.25" font-size="14" font-family="'SF Mono','SFMono-Regular',Consolas,monospace" letter-spacing="1.5">somblog</text>

  <!-- 우측 장식 -->
  
    <circle cx="980" cy="260" r="120" fill="none" stroke="#6ee7b7" stroke-opacity="0.06" stroke-width="1"/>
    <circle cx="980" cy="260" r="80" fill="none" stroke="#6ee7b7" stroke-opacity="0.09" stroke-width="1"/>
    <circle cx="980" cy="260" r="40" fill="none" stroke="#6ee7b7" stroke-opacity="0.14" stroke-width="1"/>
    <circle cx="980" cy="260" r="6" fill="#6ee7b7" opacity="0.2"/>
    <line x1="860" y1="260" x2="936" y2="260" stroke="#6ee7b7" stroke-opacity="0.08" stroke-width="1"/>
    <line x1="980" y1="140" x2="980" y2="216" stroke="#6ee7b7" stroke-opacity="0.08" stroke-width="1"/>
</svg>