<?xml version="1.0" encoding="UTF-8"?>
<svg xmlns="http://www.w3.org/2000/svg" width="1200" height="630" viewBox="0 0 1200 630">
  <defs>
    <linearGradient id="bg" x1="0" y1="0" x2="1" y2="1">
      <stop offset="0%" stop-color="#06090d"/>
      <stop offset="100%" stop-color="#0a1018"/>
    </linearGradient>
  </defs>

  <!-- 배경 -->
  <rect width="1200" height="630" fill="url(#bg)"/>

  <!-- 도트 패턴 -->
  <g>
    <circle cx="703" cy="107" r="1.5" fill="#c4b5fd" opacity="0.14"/>
    <circle cx="266" cy="154" r="2" fill="#c4b5fd" opacity="0.12"/>
    <circle cx="909" cy="201" r="1" fill="#c4b5fd" opacity="0.1"/>
    <circle cx="472" cy="248" r="1.5" fill="#c4b5fd" opacity="0.08"/>
    <circle cx="1115" cy="295" r="2" fill="#c4b5fd" opacity="0.06"/>
    <circle cx="678" cy="342" r="1" fill="#c4b5fd" opacity="0.14"/>
    <circle cx="241" cy="389" r="1.5" fill="#c4b5fd" opacity="0.12"/>
    <circle cx="884" cy="436" r="2" fill="#c4b5fd" opacity="0.1"/>
    <circle cx="447" cy="483" r="1" fill="#c4b5fd" opacity="0.08"/>
    <circle cx="1090" cy="530" r="1.5" fill="#c4b5fd" opacity="0.06"/>
    <circle cx="653" cy="67" r="2" fill="#c4b5fd" opacity="0.14"/>
    <circle cx="216" cy="114" r="1" fill="#c4b5fd" opacity="0.12"/>
    <circle cx="859" cy="161" r="1.5" fill="#c4b5fd" opacity="0.1"/>
    <circle cx="422" cy="208" r="2" fill="#c4b5fd" opacity="0.08"/>
    <circle cx="1065" cy="255" r="1" fill="#c4b5fd" opacity="0.06"/>
    <circle cx="628" cy="302" r="1.5" fill="#c4b5fd" opacity="0.14"/>
    <circle cx="191" cy="349" r="2" fill="#c4b5fd" opacity="0.12"/>
    <circle cx="834" cy="396" r="1" fill="#c4b5fd" opacity="0.1"/>
    <circle cx="397" cy="443" r="1.5" fill="#c4b5fd" opacity="0.08"/>
    <circle cx="1040" cy="490" r="2" fill="#c4b5fd" opacity="0.06"/>
    <circle cx="603" cy="537" r="1" fill="#c4b5fd" opacity="0.14"/>
    <circle cx="166" cy="74" r="1.5" fill="#c4b5fd" opacity="0.12"/>
    <circle cx="809" cy="121" r="2" fill="#c4b5fd" opacity="0.1"/>
    <circle cx="372" cy="168" r="1" fill="#c4b5fd" opacity="0.08"/>
  </g>

  <!-- 테두리 -->
  <rect x="40" y="40" width="1120" height="550" rx="24" fill="none" stroke="#c4b5fd" stroke-opacity="0.08" stroke-width="1"/>

  <!-- 상단 악센트 라인 -->
  <line x1="90" y1="40" x2="400" y2="40" stroke="#c4b5fd" stroke-opacity="0.4" stroke-width="2"/>

  <!-- 뱃지 -->
  <rect x="90" y="90" rx="14" width="182" height="30" fill="#c4b5fd" fill-opacity="0.08" stroke="#c4b5fd" stroke-opacity="0.2" stroke-width="1"/>
  <text x="104" y="110" fill="#c4b5fd" font-size="13" font-weight="600" font-family="'SF Mono','SFMono-Regular',Consolas,'Liberation Mono',monospace" letter-spacing="1.8">DESIGN PATTERN</text>

  <!-- 서브카테고리 -->
  <text x="92" y="166" fill="#c4b5fd" fill-opacity="0.35" font-size="15" font-weight="500" font-family="'SF Mono','SFMono-Regular',Consolas,monospace" letter-spacing="1">Game Programming</text>

  <!-- 구분선 -->
  <line x1="90" y1="186" x2="500" y2="186" stroke="#c4b5fd" stroke-opacity="0.12" stroke-width="1"/>

  <!-- 타이틀 -->
  <text x="90" y="290" fill="#f0f4f8" font-size="72" font-weight="800" font-family="'Pretendard','Segoe UI',system-ui,sans-serif" letter-spacing="-1.5">Event Queue</text>

  <!-- 하단 경로 -->
  <text x="92" y="520" fill="#c4b5fd" fill-opacity="0.25" font-size="14" font-family="'SF Mono','SFMono-Regular',Consolas,monospace" letter-spacing="1.5">somblog</text>

  <!-- 우측 장식 -->
  
    <circle cx="980" cy="260" r="120" fill="none" stroke="#c4b5fd" stroke-opacity="0.06" stroke-width="1"/>
    <circle cx="980" cy="260" r="80" fill="none" stroke="#c4b5fd" stroke-opacity="0.09" stroke-width="1"/>
    <circle cx="980" cy="260" r="40" fill="none" stroke="#c4b5fd" stroke-opacity="0.14" stroke-width="1"/>
    <circle cx="980" cy="260" r="6" fill="#c4b5fd" opacity="0.2"/>
    <line x1="860" y1="260" x2="936" y2="260" stroke="#c4b5fd" stroke-opacity="0.08" stroke-width="1"/>
    <line x1="980" y1="140" x2="980" y2="216" stroke="#c4b5fd" stroke-opacity="0.08" stroke-width="1"/>
</svg>