<?xml version="1.0" encoding="UTF-8"?>
<svg xmlns="http://www.w3.org/2000/svg" width="1200" height="630" viewBox="0 0 1200 630">
  <defs>
    <linearGradient id="bg" x1="0" y1="0" x2="1" y2="1">
      <stop offset="0%" stop-color="#06090d"/>
      <stop offset="100%" stop-color="#0a1018"/>
    </linearGradient>
  </defs>

  <!-- 배경 -->
  <rect width="1200" height="630" fill="url(#bg)"/>

  <!-- 도트 패턴 -->
  <g>
    <circle cx="882" cy="258" r="1" fill="#93c5fd" opacity="0.08"/>
    <circle cx="624" cy="456" r="1" fill="#93c5fd" opacity="0.1"/>
    <circle cx="366" cy="144" r="1" fill="#93c5fd" opacity="0.12"/>
    <circle cx="108" cy="342" r="1" fill="#93c5fd" opacity="0.14"/>
    <circle cx="930" cy="540" r="1" fill="#93c5fd" opacity="0.06"/>
    <circle cx="672" cy="228" r="1" fill="#93c5fd" opacity="0.08"/>
    <circle cx="414" cy="426" r="1" fill="#93c5fd" opacity="0.1"/>
    <circle cx="156" cy="114" r="1" fill="#93c5fd" opacity="0.12"/>
    <circle cx="978" cy="312" r="1" fill="#93c5fd" opacity="0.14"/>
    <circle cx="720" cy="510" r="1" fill="#93c5fd" opacity="0.06"/>
    <circle cx="462" cy="198" r="1" fill="#93c5fd" opacity="0.08"/>
    <circle cx="204" cy="396" r="1" fill="#93c5fd" opacity="0.1"/>
    <circle cx="1026" cy="84" r="1" fill="#93c5fd" opacity="0.12"/>
    <circle cx="768" cy="282" r="1" fill="#93c5fd" opacity="0.14"/>
    <circle cx="510" cy="480" r="1" fill="#93c5fd" opacity="0.06"/>
    <circle cx="252" cy="168" r="1" fill="#93c5fd" opacity="0.08"/>
    <circle cx="1074" cy="366" r="1" fill="#93c5fd" opacity="0.1"/>
    <circle cx="816" cy="564" r="1" fill="#93c5fd" opacity="0.12"/>
    <circle cx="558" cy="252" r="1" fill="#93c5fd" opacity="0.14"/>
    <circle cx="300" cy="450" r="1" fill="#93c5fd" opacity="0.06"/>
    <circle cx="1122" cy="138" r="1" fill="#93c5fd" opacity="0.08"/>
    <circle cx="864" cy="336" r="1" fill="#93c5fd" opacity="0.1"/>
    <circle cx="606" cy="534" r="1" fill="#93c5fd" opacity="0.12"/>
    <circle cx="348" cy="222" r="1" fill="#93c5fd" opacity="0.14"/>
  </g>

  <!-- 테두리 -->
  <rect x="40" y="40" width="1120" height="550" rx="24" fill="none" stroke="#93c5fd" stroke-opacity="0.08" stroke-width="1"/>

  <!-- 상단 악센트 라인 -->
  <line x1="90" y1="40" x2="400" y2="40" stroke="#93c5fd" stroke-opacity="0.4" stroke-width="2"/>

  <!-- 뱃지 -->
  <rect x="90" y="90" rx="14" width="182" height="30" fill="#93c5fd" fill-opacity="0.08" stroke="#93c5fd" stroke-opacity="0.2" stroke-width="1"/>
  <text x="104" y="110" fill="#93c5fd" font-size="13" font-weight="600" font-family="'SF Mono','SFMono-Regular',Consolas,'Liberation Mono',monospace" letter-spacing="1.8">DESIGN PATTERN</text>

  <!-- 서브카테고리 -->
  <text x="92" y="166" fill="#93c5fd" fill-opacity="0.35" font-size="15" font-weight="500" font-family="'SF Mono','SFMono-Regular',Consolas,monospace" letter-spacing="1">GoF · Structural</text>

  <!-- 구분선 -->
  <line x1="90" y1="186" x2="500" y2="186" stroke="#93c5fd" stroke-opacity="0.12" stroke-width="1"/>

  <!-- 타이틀 -->
  <text x="90" y="290" fill="#f0f4f8" font-size="72" font-weight="800" font-family="'Pretendard','Segoe UI',system-ui,sans-serif" letter-spacing="-1.5">Proxy</text>

  <!-- 하단 경로 -->
  <text x="92" y="520" fill="#93c5fd" fill-opacity="0.25" font-size="14" font-family="'SF Mono','SFMono-Regular',Consolas,monospace" letter-spacing="1.5">somblog</text>

  <!-- 우측 장식 -->
  
    <circle cx="980" cy="260" r="120" fill="none" stroke="#93c5fd" stroke-opacity="0.06" stroke-width="1"/>
    <circle cx="980" cy="260" r="80" fill="none" stroke="#93c5fd" stroke-opacity="0.09" stroke-width="1"/>
    <circle cx="980" cy="260" r="40" fill="none" stroke="#93c5fd" stroke-opacity="0.14" stroke-width="1"/>
    <circle cx="980" cy="260" r="6" fill="#93c5fd" opacity="0.2"/>
    <line x1="860" y1="260" x2="936" y2="260" stroke="#93c5fd" stroke-opacity="0.08" stroke-width="1"/>
    <line x1="980" y1="140" x2="980" y2="216" stroke="#93c5fd" stroke-opacity="0.08" stroke-width="1"/>
</svg>