<?xml version="1.0" encoding="UTF-8"?>
<svg xmlns="http://www.w3.org/2000/svg" width="1200" height="630" viewBox="0 0 1200 630">
  <defs>
    <linearGradient id="bg" x1="0" y1="0" x2="1" y2="1">
      <stop offset="0%" stop-color="#06090d"/>
      <stop offset="100%" stop-color="#0a1018"/>
    </linearGradient>
  </defs>

  <!-- 배경 -->
  <rect width="1200" height="630" fill="url(#bg)"/>

  <!-- 도트 패턴 -->
  <g>
    <circle cx="104" cy="376" r="2" fill="#67e8f9" opacity="0.1"/>
    <circle cx="148" cy="182" r="1.5" fill="#67e8f9" opacity="0.14"/>
    <circle cx="192" cy="498" r="1" fill="#67e8f9" opacity="0.08"/>
    <circle cx="236" cy="304" r="2" fill="#67e8f9" opacity="0.12"/>
    <circle cx="280" cy="110" r="1.5" fill="#67e8f9" opacity="0.06"/>
    <circle cx="324" cy="426" r="1" fill="#67e8f9" opacity="0.1"/>
    <circle cx="368" cy="232" r="2" fill="#67e8f9" opacity="0.14"/>
    <circle cx="412" cy="548" r="1.5" fill="#67e8f9" opacity="0.08"/>
    <circle cx="456" cy="354" r="1" fill="#67e8f9" opacity="0.12"/>
    <circle cx="500" cy="160" r="2" fill="#67e8f9" opacity="0.06"/>
    <circle cx="544" cy="476" r="1.5" fill="#67e8f9" opacity="0.1"/>
    <circle cx="588" cy="282" r="1" fill="#67e8f9" opacity="0.14"/>
    <circle cx="632" cy="88" r="2" fill="#67e8f9" opacity="0.08"/>
    <circle cx="676" cy="404" r="1.5" fill="#67e8f9" opacity="0.12"/>
    <circle cx="720" cy="210" r="1" fill="#67e8f9" opacity="0.06"/>
    <circle cx="764" cy="526" r="2" fill="#67e8f9" opacity="0.1"/>
    <circle cx="808" cy="332" r="1.5" fill="#67e8f9" opacity="0.14"/>
    <circle cx="852" cy="138" r="1" fill="#67e8f9" opacity="0.08"/>
    <circle cx="896" cy="454" r="2" fill="#67e8f9" opacity="0.12"/>
    <circle cx="940" cy="260" r="1.5" fill="#67e8f9" opacity="0.06"/>
    <circle cx="984" cy="66" r="1" fill="#67e8f9" opacity="0.1"/>
    <circle cx="1028" cy="382" r="2" fill="#67e8f9" opacity="0.14"/>
    <circle cx="1072" cy="188" r="1.5" fill="#67e8f9" opacity="0.08"/>
    <circle cx="1116" cy="504" r="1" fill="#67e8f9" opacity="0.12"/>
  </g>

  <!-- 테두리 -->
  <rect x="40" y="40" width="1120" height="550" rx="24" fill="none" stroke="#67e8f9" stroke-opacity="0.08" stroke-width="1"/>

  <!-- 상단 악센트 라인 -->
  <line x1="90" y1="40" x2="400" y2="40" stroke="#67e8f9" stroke-opacity="0.4" stroke-width="2"/>

  <!-- 뱃지 -->
  <rect x="90" y="90" rx="14" width="171" height="30" fill="#67e8f9" fill-opacity="0.08" stroke="#67e8f9" stroke-opacity="0.2" stroke-width="1"/>
  <text x="104" y="110" fill="#67e8f9" font-size="13" font-weight="600" font-family="'SF Mono','SFMono-Regular',Consolas,'Liberation Mono',monospace" letter-spacing="1.8">UNITY PACKAGE</text>

  <!-- 서브카테고리 -->
  <text x="92" y="166" fill="#67e8f9" fill-opacity="0.35" font-size="15" font-weight="500" font-family="'SF Mono','SFMono-Regular',Consolas,monospace" letter-spacing="1">Package</text>

  <!-- 구분선 -->
  <line x1="90" y1="186" x2="500" y2="186" stroke="#67e8f9" stroke-opacity="0.12" stroke-width="1"/>

  <!-- 타이틀 -->
  <text x="90" y="300" fill="#f0f4f8" font-size="56" font-weight="800" font-family="'Pretendard','Segoe UI',system-ui,sans-serif" letter-spacing="-1.5">Smart Addressables</text>

  <!-- 하단 경로 -->
  <text x="92" y="520" fill="#67e8f9" fill-opacity="0.25" font-size="14" font-family="'SF Mono','SFMono-Regular',Consolas,monospace" letter-spacing="1.5">somblog</text>

  <!-- 우측 장식 -->
  
    <circle cx="980" cy="260" r="120" fill="none" stroke="#67e8f9" stroke-opacity="0.06" stroke-width="1"/>
    <circle cx="980" cy="260" r="80" fill="none" stroke="#67e8f9" stroke-opacity="0.09" stroke-width="1"/>
    <circle cx="980" cy="260" r="40" fill="none" stroke="#67e8f9" stroke-opacity="0.14" stroke-width="1"/>
    <circle cx="980" cy="260" r="6" fill="#67e8f9" opacity="0.2"/>
    <line x1="860" y1="260" x2="936" y2="260" stroke="#67e8f9" stroke-opacity="0.08" stroke-width="1"/>
    <line x1="980" y1="140" x2="980" y2="216" stroke="#67e8f9" stroke-opacity="0.08" stroke-width="1"/>
</svg>