<?xml version="1.0" encoding="UTF-8"?>
<svg xmlns="http://www.w3.org/2000/svg" width="1200" height="630" viewBox="0 0 1200 630">
  <defs>
    <linearGradient id="bg" x1="0" y1="0" x2="1" y2="1">
      <stop offset="0%" stop-color="#06090d"/>
      <stop offset="100%" stop-color="#0a1018"/>
    </linearGradient>
  </defs>

  <!-- 배경 -->
  <rect width="1200" height="630" fill="url(#bg)"/>

  <!-- 도트 패턴 -->
  <g>
    <circle cx="813" cy="207" r="1" fill="#67e8f9" opacity="0.14"/>
    <circle cx="486" cy="354" r="1" fill="#67e8f9" opacity="0.12"/>
    <circle cx="159" cy="501" r="1" fill="#67e8f9" opacity="0.1"/>
    <circle cx="912" cy="138" r="1" fill="#67e8f9" opacity="0.08"/>
    <circle cx="585" cy="285" r="1" fill="#67e8f9" opacity="0.06"/>
    <circle cx="258" cy="432" r="1" fill="#67e8f9" opacity="0.14"/>
    <circle cx="1011" cy="69" r="1" fill="#67e8f9" opacity="0.12"/>
    <circle cx="684" cy="216" r="1" fill="#67e8f9" opacity="0.1"/>
    <circle cx="357" cy="363" r="1" fill="#67e8f9" opacity="0.08"/>
    <circle cx="1110" cy="510" r="1" fill="#67e8f9" opacity="0.06"/>
    <circle cx="783" cy="147" r="1" fill="#67e8f9" opacity="0.14"/>
    <circle cx="456" cy="294" r="1" fill="#67e8f9" opacity="0.12"/>
    <circle cx="129" cy="441" r="1" fill="#67e8f9" opacity="0.1"/>
    <circle cx="882" cy="78" r="1" fill="#67e8f9" opacity="0.08"/>
    <circle cx="555" cy="225" r="1" fill="#67e8f9" opacity="0.06"/>
    <circle cx="228" cy="372" r="1" fill="#67e8f9" opacity="0.14"/>
    <circle cx="981" cy="519" r="1" fill="#67e8f9" opacity="0.12"/>
    <circle cx="654" cy="156" r="1" fill="#67e8f9" opacity="0.1"/>
    <circle cx="327" cy="303" r="1" fill="#67e8f9" opacity="0.08"/>
    <circle cx="1080" cy="450" r="1" fill="#67e8f9" opacity="0.06"/>
    <circle cx="753" cy="87" r="1" fill="#67e8f9" opacity="0.14"/>
    <circle cx="426" cy="234" r="1" fill="#67e8f9" opacity="0.12"/>
    <circle cx="99" cy="381" r="1" fill="#67e8f9" opacity="0.1"/>
    <circle cx="852" cy="528" r="1" fill="#67e8f9" opacity="0.08"/>
  </g>

  <!-- 테두리 -->
  <rect x="40" y="40" width="1120" height="550" rx="24" fill="none" stroke="#67e8f9" stroke-opacity="0.08" stroke-width="1"/>

  <!-- 상단 악센트 라인 -->
  <line x1="90" y1="40" x2="400" y2="40" stroke="#67e8f9" stroke-opacity="0.4" stroke-width="2"/>

  <!-- 뱃지 -->
  <rect x="90" y="90" rx="14" width="171" height="30" fill="#67e8f9" fill-opacity="0.08" stroke="#67e8f9" stroke-opacity="0.2" stroke-width="1"/>
  <text x="104" y="110" fill="#67e8f9" font-size="13" font-weight="600" font-family="'SF Mono','SFMono-Regular',Consolas,'Liberation Mono',monospace" letter-spacing="1.8">UNITY PACKAGE</text>

  <!-- 서브카테고리 -->
  <text x="92" y="166" fill="#67e8f9" fill-opacity="0.35" font-size="15" font-weight="500" font-family="'SF Mono','SFMono-Regular',Consolas,monospace" letter-spacing="1">Package</text>

  <!-- 구분선 -->
  <line x1="90" y1="186" x2="500" y2="186" stroke="#67e8f9" stroke-opacity="0.12" stroke-width="1"/>

  <!-- 타이틀 -->
  <text x="90" y="290" fill="#f0f4f8" font-size="64" font-weight="800" font-family="'Pretendard','Segoe UI',system-ui,sans-serif" letter-spacing="-1.5">Infinity Value</text>

  <!-- 하단 경로 -->
  <text x="92" y="520" fill="#67e8f9" fill-opacity="0.25" font-size="14" font-family="'SF Mono','SFMono-Regular',Consolas,monospace" letter-spacing="1.5">somblog</text>

  <!-- 우측 장식 -->
  
    <circle cx="980" cy="260" r="120" fill="none" stroke="#67e8f9" stroke-opacity="0.06" stroke-width="1"/>
    <circle cx="980" cy="260" r="80" fill="none" stroke="#67e8f9" stroke-opacity="0.09" stroke-width="1"/>
    <circle cx="980" cy="260" r="40" fill="none" stroke="#67e8f9" stroke-opacity="0.14" stroke-width="1"/>
    <circle cx="980" cy="260" r="6" fill="#67e8f9" opacity="0.2"/>
    <line x1="860" y1="260" x2="936" y2="260" stroke="#67e8f9" stroke-opacity="0.08" stroke-width="1"/>
    <line x1="980" y1="140" x2="980" y2="216" stroke="#67e8f9" stroke-opacity="0.08" stroke-width="1"/>
</svg>